<?xml version="1.0" encoding="utf-8"?>
<!-- Uploaded to: SVG Repo, www.svgrepo.com, Generator: SVG Repo Mixer Tools -->
<svg fill="#000000" version="1.1" id="Layer_1" xmlns="http://www.w3.org/2000/svg" xmlns:xlink="http://www.w3.org/1999/xlink" 
	 width="800px" height="800px" viewBox="0 0 260 260" enable-background="new 0 0 260 260" xml:space="preserve">
<path d="M239.467,136H258c-3.136,67.906-59.208,122-127.928,122C59.34,258,2,200.692,2,130S59.34,2,130.072,2
	c21.189,0,41.173,5.147,58.777,14.252l-9.286,16.074C164.69,24.767,147.871,20.5,130.072,20.5C69.66,20.5,20.51,69.622,20.51,130
	c0,60.379,49.149,109.5,109.562,109.5C188.471,239.5,236.34,193.599,239.467,136z M119.674,136h107.763
	c-3.112,50.977-45.589,91.5-97.365,91.5c-45.895,0-84.482-31.841-94.825-74.579c2.193,3.609,6.152,6.029,10.686,6.029
	c6.907,0,12.507-5.596,12.507-12.5s-5.6-12.5-12.507-12.5c-6.237,0-11.393,4.568-12.338,10.535
	c-0.708-4.728-1.078-9.564-1.078-14.485c0-53.762,43.763-97.5,97.555-97.5c15.614,0,30.379,3.691,43.478,10.237L119.674,136z
	 M126.57,66c0,4.142,3.36,7.5,7.504,7.5c4.145,0,7.504-3.358,7.504-7.5s-3.36-7.5-7.504-7.5C129.93,58.5,126.57,61.858,126.57,66z
	 M83.046,88c6.907,0,12.507-5.596,12.507-12.5S89.953,63,83.046,63c-6.907,0-12.507,5.596-12.507,12.5S76.138,88,83.046,88z
	 M83.046,129.5c4.144,0,7.504-3.358,7.504-7.5s-3.36-7.5-7.504-7.5s-7.504,3.358-7.504,7.5S78.901,129.5,83.046,129.5z M112,196.75
	c0-6.904-5.6-12.5-12.507-12.5c-6.907,0-12.507,5.596-12.507,12.5s5.6,12.5,12.507,12.5C106.4,209.25,112,203.654,112,196.75z
	 M176.568,163.875c0,6.904,5.6,12.5,12.507,12.5s12.507-5.596,12.507-12.5s-5.6-12.5-12.507-12.5S176.568,156.971,176.568,163.875z
	 M154.586,202.938c0,4.142,3.36,7.5,7.504,7.5s7.504-3.358,7.504-7.5s-3.36-7.5-7.504-7.5S154.586,198.796,154.586,202.938z
	 M119.066,162c0,4.142,3.36,7.5,7.504,7.5c4.144,0,7.504-3.358,7.504-7.5s-3.36-7.5-7.504-7.5
	C122.426,154.5,119.066,157.858,119.066,162z M239.467,124H258c-1.973-42.727-24.902-79.986-58.756-101.741l-9.293,16.088
	C218.273,56.892,237.522,88.182,239.467,124z M227.437,124h-86.966l27.703-47.957c2.078,1.537,4.64,2.457,7.424,2.457
	c6.907,0,12.507-5.596,12.507-12.5c0-5.127-3.092-9.528-7.511-11.456l3.345-5.791C208.684,65.195,225.521,92.614,227.437,124z
	 M202.613,94.438c-4.144,0-7.504,3.358-7.504,7.5s3.36,7.5,7.504,7.5s7.504-3.358,7.504-7.5S206.758,94.438,202.613,94.438z"/>
</svg>